<svg width="887" height="226" fill="none" xmlns="http://www.w3.org/2000/svg"><path fill-rule="evenodd" clip-rule="evenodd" d="M886.5 124.659c0 .322-.224.582-.5.582-7.765 0-11.904 2-18.521 5.197l-1.6.771c-.922.442-1.972.169-3.021-.458-1.059-.633-2.216-1.684-3.421-2.999-2.415-2.635-5.118-6.434-7.756-10.411-1.769-2.666-3.521-5.43-5.143-7.991-.798-1.258-1.564-2.468-2.286-3.592-1.099-1.711-2.094-3.226-2.947-4.429-.862-1.216-1.549-2.075-2.035-2.507-12.966-11.555-31.086-2.146-34.189 14.128-.764 4.009-1.589 7.021-2.487 9.229-.897 2.205-1.885 3.656-2.998 4.48-2.273 1.683-4.797.583-7.365-1.024-.766-.479-1.545-1.009-2.342-1.551-1.964-1.335-4.042-2.749-6.323-3.681-3.16-1.291-6.631-1.614-10.506.644-1.183.689-2.849 2.334-4.717 4.478-1.853 2.127-3.858 4.69-5.713 7.157a377.206 377.206 0 0 0-4.787 6.544l-.005.007c-.619.861-1.126 1.566-1.48 2.044-.176.237-.32.427-.423.553a1.826 1.826 0 0 1-.154.17l-.001.002c-.017.016-.079.076-.166.114a.446.446 0 0 1-.362.001c-.237-.105-.308-.351-.322-.479-.619-5.77-3.397-11.992-7.309-16.538-3.915-4.548-8.888-7.335-13.881-6.44-8.079 1.448-12.745 7.13-16.634 13.966-1.244 2.187-2.395 4.465-3.553 6.758a276.268 276.268 0 0 1-2.016 3.941c-1.875 3.571-3.889 7.028-6.375 9.924-.307.359-.65.588-1.026.671-.374.082-.735.008-1.065-.147-.637-.301-1.235-.943-1.765-1.594-.271-.334-.54-.689-.798-1.031l-.002-.003c-.26-.344-.508-.673-.751-.97a7.079 7.079 0 0 0-.682-.746c-.215-.196-.39-.306-.527-.352-1.876-.625-4.395-.768-6.949-.606-2.547.161-5.084.623-6.978 1.174-3.039.886-6.897 3.215-11.205 6.183-2.338 1.612-4.77 3.383-7.257 5.194-2.108 1.535-4.255 3.099-6.419 4.619-4.683 3.291-9.379 6.327-13.665 8.218-4.267 1.882-8.232 2.676-11.399 1.316-2.421-1.039-4.558-2.15-6.569-3.225l-1.048-.563c-1.627-.875-3.184-1.712-4.775-2.462-3.841-1.811-7.862-3.106-13.389-3.106-2.541 0-3.975.632-4.926 1.416-.482.396-.858.846-1.201 1.314-.15.204-.29.408-.433.615l-.067.097c-.164.237-.333.478-.51.708-.357.46-.764.895-1.299 1.207-.538.314-1.174.487-1.969.479-1.563-.016-3.784-.732-7.207-2.505-5.114-2.649-9.705-6.89-14.24-11.29-.53-.514-1.06-1.03-1.589-1.547-4.017-3.919-8.037-7.84-12.433-10.864-1.438-.989-3.981-3.148-7.193-5.876-1.119-.95-2.32-1.97-3.583-3.033-4.911-4.132-10.812-8.958-16.715-13.079-5.913-4.127-11.785-7.515-16.644-8.807-2.428-.647-4.56-.757-6.302-.215-1.72.536-3.083 1.716-3.998 3.73-2.757 6.069-2.562 12.751-2.362 19.576.016.533.031 1.066.045 1.601.195 7.317.124 14.729-4.178 21.175-5.992 8.978-10.212 20.084-10.212 31.766 0 2.97-.742 11.77-1.858 19.449-.558 3.839-1.215 7.436-1.929 9.899-.352 1.217-.738 2.227-1.167 2.843-.215.308-.486.585-.825.684-.374.109-.722-.028-1.006-.304-2.723-2.645-7.261-3.954-12.749-4.601-4.695-.554-9.995-.617-15.292-.68-.871-.01-1.741-.02-2.609-.033-6.128-.088-12.124-.285-16.941-1.383-4.787-1.091-8.597-3.113-10.094-7.039-.931-2.439-1.319-4.797-1.588-6.939a128.73 128.73 0 0 1-.171-1.431c-.183-1.578-.346-2.985-.682-4.242-.422-1.584-1.105-2.864-2.427-3.814-1.346-.968-3.401-1.629-6.631-1.827-4.576-.281-7.677-1.228-9.78-2.837-2.129-1.63-3.177-3.892-3.733-6.624-.48-2.355-.602-5.11-.736-8.143l-.06-1.332c-.168-3.586-.424-7.583-1.304-11.945-.142-.702-.287-1.743-.451-2.924l-.15-1.066c-.231-1.631-.509-3.438-.875-5.078-.37-1.656-.816-3.074-1.36-3.969-.269-.443-.537-.714-.795-.845-.242-.122-.516-.141-.86.014-8.319 3.77-16.874 6.409-25.455 9.055l-.552.171c-6.779 2.091-11.434 3.222-14.719 3.39-3.302.169-5.328-.633-6.722-2.534-.679-.927-1.184-2.082-1.624-3.426-.441-1.341-.83-2.908-1.262-4.669l-.054-.221c-.859-3.493-1.92-7.813-3.929-12.963-1.737-4.455-4.146-7.508-6.896-10.242-1.231-1.224-2.526-2.38-3.863-3.573l-.484-.433c-1.505-1.345-3.054-2.75-4.593-4.344-1.117-1.157-2.879-2.37-4.951-3.657-.909-.565-1.893-1.153-2.9-1.755a181.447 181.447 0 0 1-3.706-2.255c-2.211-1.394-4.327-2.866-5.938-4.427-1.596-1.547-2.787-3.267-2.98-5.18-.389-3.845-1.694-5.617-3.367-6.257-1.745-.668-4.06-.18-6.579.992-5.011 2.33-10.401 7.153-12.62 9.221a1465.862 1465.862 0 0 1-8.023 7.408c-19.344 17.774-36.781 33.795-49.565 59.867l-.096.195c-1.172 2.393-5.242 10.702-9.186 16.054-1.016 1.38-2.039 2.583-3.016 3.442-.961.845-1.951 1.421-2.887 1.398-1.002-.025-1.797-.726-2.343-2.022-.534-1.268-.864-3.17-.977-5.802-.339-7.899-2.832-16.344-6.054-24.545-2.517-6.406-5.463-12.624-8.148-18.294a824.5 824.5 0 0 1-2.181-4.627c-13.115-28.143-27.655-57.139-50.464-75.695a441.126 441.126 0 0 0-4.476-3.583c-3.574-2.834-6.172-4.894-8.51-7.391-3.237-3.459-5.98-7.752-10.21-16.07l-.941-1.855c-4.316-8.513-8.927-17.61-14.613-23.884-3.042-3.357-6.37-5.878-10.097-7.07-3.72-1.189-7.876-1.065-12.597.936-1.645.697-3.404 2.111-5.195 3.984-1.785 1.868-3.575 4.163-5.281 6.584-2.785 3.95-5.325 8.201-7.256 11.431-.437.732-.843 1.412-1.214 2.023C45.495 50.254 27.833 68 9.963 85.953c-2.878 2.891-5.761 5.788-8.634 8.712-.208.211-.524.187-.706-.056a.652.652 0 0 1 .048-.822c2.882-2.933 5.77-5.835 8.65-8.729 17.876-17.96 35.434-35.602 49.142-58.233.365-.603.767-1.276 1.202-2.003 1.93-3.229 4.5-7.528 7.312-11.519 1.724-2.446 3.55-4.79 5.386-6.711 1.832-1.916 3.703-3.441 5.52-4.212C82.783.305 87.15.157 91.088 1.416c3.931 1.256 7.399 3.902 10.52 7.347 5.794 6.392 10.474 15.628 14.77 24.103.321.634.64 1.264.958 1.888 4.214 8.288 6.897 12.463 10.025 15.805 2.281 2.436 4.795 4.43 8.338 7.24a439.061 439.061 0 0 1 4.544 3.638c23.027 18.733 37.663 47.968 50.771 76.094.69 1.479 1.417 3.014 2.166 4.596 2.688 5.675 5.658 11.946 8.193 18.396 3.24 8.248 5.795 16.852 6.144 24.972.11 2.578.432 4.291.876 5.347.432 1.027.941 1.357 1.467 1.37.591.015 1.353-.363 2.263-1.163.896-.788 1.865-1.922 2.86-3.271 3.878-5.263 7.908-13.49 9.081-15.884l.09-.184c12.887-26.282 30.484-42.447 49.82-60.209 2.641-2.426 5.314-4.882 8.012-7.398 2.216-2.066 7.71-6.991 12.875-9.393 2.569-1.195 5.166-1.82 7.261-1.017 2.168.83 3.632 3.11 4.048 7.228.146 1.451 1.08 2.921 2.626 4.419 1.532 1.484 3.576 2.912 5.775 4.299 1.219.769 2.448 1.503 3.658 2.226 1 .597 1.986 1.186 2.943 1.781 2.068 1.285 3.928 2.554 5.145 3.814 1.509 1.564 3.034 2.946 4.537 4.291l.485.433c1.334 1.191 2.65 2.365 3.902 3.611 2.817 2.801 5.34 5.984 7.158 10.645 2.04 5.23 3.118 9.619 3.976 13.115l.057.231c.435 1.772.813 3.288 1.235 4.574.421 1.285.876 2.301 1.45 3.085 1.113 1.518 2.772 2.288 5.919 2.127 3.164-.162 7.723-1.26 14.506-3.353l.53-.163c8.597-2.652 17.105-5.276 25.371-9.022.568-.257 1.116-.251 1.619.003.486.245.885.699 1.214 1.241.655 1.076 1.136 2.669 1.511 4.348.379 1.695.663 3.546.895 5.181l.155 1.104c.163 1.171.299 2.151.432 2.81.902 4.466 1.161 8.547 1.329 12.148l.061 1.34c.136 3.051.253 5.686.71 7.93.515 2.53 1.451 4.496 3.309 5.919 1.885 1.442 4.776 2.371 9.284 2.647 3.302.203 5.551.883 7.103 1.999 1.575 1.133 2.381 2.677 2.857 4.46.363 1.36.541 2.898.726 4.495.052.448.104.9.161 1.355.265 2.107.637 4.34 1.512 6.634 1.282 3.36 4.63 5.288 9.373 6.369 4.714 1.075 10.621 1.274 16.761 1.362.863.012 1.731.022 2.6.033 5.293.062 10.645.125 15.39.685 5.503.65 10.314 1.977 13.289 4.866.093.091.122.069.122.068.036-.01.137-.065.292-.287.308-.444.648-1.281.996-2.482.687-2.372 1.333-5.893 1.89-9.721 1.112-7.654 1.844-16.38 1.844-19.254 0-12.008 4.334-23.358 10.422-32.481 4.06-6.082 4.164-13.095 3.969-20.424l-.047-1.649c-.201-6.763-.409-13.752 2.479-20.11 1.05-2.31 2.644-3.693 4.624-4.31 1.96-.61 4.272-.464 6.782.204 5.02 1.336 11.004 4.805 16.935 8.945 5.942 4.147 11.871 8.997 16.787 13.133 1.291 1.087 2.51 2.121 3.639 3.08 3.189 2.708 5.667 4.812 7.06 5.771 4.472 3.075 8.559 7.063 12.568 10.975.53.516 1.058 1.032 1.586 1.543 4.539 4.404 9.034 8.546 14.006 11.121 3.403 1.762 5.464 2.391 6.81 2.405.659.006 1.135-.136 1.512-.356.38-.222.691-.542 1.004-.946.157-.203.31-.422.474-.658.162-.234.334-.486.519-.738.372-.508.809-1.036 1.384-1.509 1.161-.956 2.812-1.63 5.503-1.63 5.683 0 9.833 1.338 13.764 3.192 1.616.762 3.198 1.613 4.827 2.488l1.038.558c2.005 1.072 4.114 2.167 6.498 3.191 2.813 1.208 6.484.546 10.699-1.313 4.197-1.851 8.828-4.841 13.503-8.126 2.123-1.491 4.268-3.053 6.382-4.592 2.509-1.827 4.973-3.621 7.301-5.226 4.303-2.965 8.275-5.379 11.471-6.31 1.96-.571 4.561-1.042 7.167-1.207 2.597-.165 5.245-.028 7.277.648.313.104.605.314.869.555.267.244.533.544.791.861.256.314.515.657.77.995l.009.011c.26.345.516.684.773.999.526.646.996 1.118 1.414 1.315.198.093.362.114.505.083.142-.032.31-.124.504-.35 2.4-2.797 4.365-6.16 6.229-9.708a285.707 285.707 0 0 0 1.985-3.881c1.169-2.315 2.347-4.646 3.603-6.854 3.955-6.951 8.83-12.953 17.316-14.474 5.419-.972 10.692 2.066 14.739 6.767 3.782 4.394 6.559 10.315 7.438 16.018.335-.457.777-1.072 1.306-1.808l.007-.009c1.239-1.723 2.941-4.091 4.8-6.563 1.861-2.475 3.885-5.062 5.763-7.218 1.863-2.139 3.63-3.909 4.971-4.69 4.171-2.43 7.932-2.072 11.285-.702 2.378.972 4.591 2.477 6.583 3.832.776.527 1.519 1.032 2.224 1.474 2.6 1.627 4.617 2.354 6.355 1.067.892-.661 1.776-1.894 2.631-3.996.853-2.098 1.658-5.016 2.415-8.983 3.251-17.05 22.188-26.906 35.772-14.801.587.522 1.339 1.477 2.199 2.691.869 1.226 1.876 2.759 2.976 4.472.73 1.137 1.5 2.352 2.3 3.614 1.619 2.555 3.357 5.299 5.12 7.956 2.634 3.969 5.296 7.705 7.648 10.272 1.178 1.285 2.256 2.252 3.195 2.814.95.567 1.664.666 2.183.416.554-.265 1.091-.525 1.613-.777 6.618-3.198 10.921-5.278 18.889-5.278.276 0 .5.261.5.583z" fill="#fff"/></svg>