<svg width="67" height="27" fill="none" xmlns="http://www.w3.org/2000/svg"><path d="M5.087 10.835h2.788c1.69 0 2.453-.98 2.453-2.28 0-1.312-.788-2.053-1.509-2.098v-.083c.668-.199 1.225-.728 1.225-1.788 0-1.254-.745-2.226-2.294-2.226H5.087v8.475zM6.184 9.74V7.024h1.623c.88 0 1.431.662 1.431 1.469 0 .712-.415 1.246-1.47 1.246H6.184zm0-3.713V3.448h1.499c.87 0 1.285.534 1.285 1.238 0 .819-.575 1.34-1.314 1.34h-1.47zM13.13 10.835h4.602v-1.1h-3.505V7.14h3.225V6.043h-3.225V3.461h3.462V2.36h-4.56v8.475zM20.105 10.835h.312c1.655 0 2.053-1.432 2.149-4.155l.113-3.236h2.483v7.391h1.083V2.36h-4.599l-.124 3.981c-.078 2.454-.334 3.352-1.204 3.377l-.213.008v1.11zM29.343 2.36v8.475h1.008l3.697-6.216h.067v6.216h1.098V2.36h-1.016l-3.7 6.224h-.068V2.36h-1.086zM42.621 10.835h1.339l-3-4.643 3.017-3.832h-1.36l-2.83 3.58h-.376V2.36h-1.098v8.475h1.098V7.036h.753l2.457 3.8zM46.571 2.36v8.475h1.009l3.697-6.216h.067v6.216h1.097V2.36h-1.015l-3.7 6.224h-.068V2.36H46.57zM55.542 2.36v8.475h1.008l3.697-6.216h.068v6.216h1.097V2.36h-1.016l-3.7 6.224h-.067V2.36h-1.087zM59.175.208c0 .418-.2.786-.696.786-.505 0-.693-.372-.693-.786h-.87c0 .931.608 1.573 1.563 1.573.962 0 1.57-.642 1.57-1.573h-.874zM.538 24.82h1.097v-3.696h3.626v3.695h1.101v-8.475h-1.1v3.683H1.634v-3.683H.538v8.475zM15.777 20.582c0-2.71-1.392-4.354-3.274-4.354-1.889 0-3.277 1.643-3.277 4.354 0 2.706 1.388 4.353 3.277 4.353 1.882 0 3.274-1.643 3.274-4.353zm-1.086 0c0 2.065-.938 3.186-2.188 3.186-1.253 0-2.187-1.121-2.187-3.186s.934-3.187 2.187-3.187c1.25 0 2.188 1.122 2.188 3.187zM18.645 24.82h2.788c1.69 0 2.454-.981 2.454-2.28 0-1.313-.788-2.053-1.51-2.099v-.083c.668-.198 1.226-.728 1.226-1.788 0-1.253-.746-2.226-2.294-2.226h-2.664v8.475zm1.098-1.097v-2.715h1.623c.88 0 1.43.662 1.43 1.47 0 .71-.415 1.245-1.47 1.245h-1.583zm0-3.712v-2.578h1.498c.87 0 1.286.533 1.286 1.237 0 .82-.575 1.34-1.314 1.34h-1.47zM31.223 16.344H26.69v8.475h1.097v-7.374h3.437v-1.1zM39.975 20.582c0-2.71-1.392-4.354-3.274-4.354-1.89 0-3.278 1.643-3.278 4.354 0 2.706 1.388 4.353 3.278 4.353 1.882 0 3.274-1.643 3.274-4.353zm-1.087 0c0 2.065-.937 3.186-2.187 3.186-1.254 0-2.188-1.121-2.188-3.186s.934-3.187 2.188-3.187c1.25 0 2.187 1.122 2.187 3.187zM42.843 24.82h1.097v-2.98h1.492c1.686 0 2.52-1.188 2.52-2.752 0-1.56-.827-2.744-2.517-2.744h-2.592v8.475zm1.097-4.064V17.44h1.378c1.087 0 1.53.687 1.53 1.647s-.443 1.668-1.516 1.668H43.94zM57.057 20.582c0-2.71-1.392-4.354-3.274-4.354-1.89 0-3.278 1.643-3.278 4.354 0 2.706 1.388 4.353 3.278 4.353 1.882 0 3.274-1.643 3.274-4.353zm-1.087 0c0 2.065-.937 3.186-2.187 3.186-1.254 0-2.188-1.121-2.188-3.186s.934-3.187 2.188-3.187c1.25 0 2.187 1.122 2.187 3.187zM59.374 26.868h1.051v-2.049h4.883v2.036h1.051v-3.12h-.823v-7.39H61.05l-.17 3.579c-.11 2.359-.54 3.331-1.026 3.811h-.48v3.133zm1.772-3.133c.416-.774.696-2.02.785-3.811l.114-2.48h2.44v6.291h-3.339z" fill="#fff"/></svg>