<svg width="48" height="10" fill="none" xmlns="http://www.w3.org/2000/svg"><path d="M5.336.955H.8V9.43h1.097V2.056h3.438V.955zM7.522 9.43h.312c1.655 0 2.053-1.432 2.149-4.155l.113-3.236h2.483V9.43h1.083V.955H9.063l-.124 3.981C8.86 7.39 8.605 8.288 7.735 8.313l-.213.008v1.11zM17.374 9.43l.668-2.243h2.84l.665 2.243h1.165L20.094.955h-1.268L16.21 9.43h1.165zm.987-3.319 1.073-3.617h.057l1.072 3.617h-2.202zM27.694 9.546c1.485 0 2.575-1.034 2.571-2.441.004-1.072-.554-1.842-1.52-2.016v-.066c.76-.228 1.254-.923 1.25-1.875C30 1.903 29.122.84 27.723.84c-1.336 0-2.408.94-2.444 2.318h1.062c.025-.778.654-1.25 1.367-1.25.743 0 1.23.525 1.226 1.308.003.819-.562 1.357-1.368 1.357h-.614v1.043h.614c1.009 0 1.591.596 1.591 1.448 0 .824-.614 1.382-1.47 1.382-.788 0-1.403-.471-1.445-1.225h-1.115c.046 1.383 1.097 2.326 2.567 2.326zM39.525 5.193c0-2.711-1.392-4.354-3.275-4.354-1.889 0-3.277 1.643-3.277 4.354 0 2.706 1.388 4.353 3.277 4.353 1.883 0 3.275-1.643 3.275-4.353zm-1.087 0c0 2.065-.938 3.186-2.188 3.186-1.253 0-2.187-1.121-2.187-3.186s.934-3.187 2.187-3.187c1.25 0 2.188 1.122 2.188 3.187zM42.393 9.43h2.787c1.69 0 2.454-.98 2.454-2.28 0-1.312-.788-2.053-1.51-2.098v-.083c.668-.198 1.226-.728 1.226-1.788 0-1.254-.746-2.226-2.294-2.226h-2.663V9.43zm1.097-1.096V5.619h1.623c.88 0 1.43.662 1.43 1.469 0 .712-.415 1.246-1.47 1.246H43.49zm0-3.712V2.043h1.498c.87 0 1.286.534 1.286 1.238 0 .82-.575 1.34-1.314 1.34h-1.47z" fill="#fff"/></svg>