<svg width="85" height="10" fill="none" xmlns="http://www.w3.org/2000/svg"><path d="M4.62 8.985h1.338l-3-4.643L5.976.508h-1.36l-2.83 3.58h-.377V.51H.312v8.476h1.097v-3.8h.753l2.458 3.8zM14.526 4.747c0-2.71-1.392-4.353-3.274-4.353-1.89 0-3.278 1.642-3.278 4.353 0 2.707 1.389 4.354 3.278 4.354 1.882 0 3.274-1.643 3.274-4.354zm-1.087 0c0 2.065-.937 3.187-2.187 3.187-1.254 0-2.188-1.122-2.188-3.187 0-2.065.934-3.186 2.188-3.186 1.25 0 2.187 1.121 2.187 3.186zM16.733 1.61h2.265v7.375h1.094V1.61h2.27V.51h-5.63v1.1zM25.105 8.985h4.602V7.884h-3.505V5.289h3.225V4.193h-3.225V1.61h3.463V.51h-4.56v8.475zM32.08 8.985h.312c1.655 0 2.053-1.432 2.149-4.155l.114-3.236h2.482v7.39h1.083V.51H33.62l-.124 3.981c-.078 2.454-.334 3.353-1.204 3.377l-.213.009v1.109zM42.426 3.928V.509h-1.101v8.476h2.724c1.619 0 2.546-1.051 2.542-2.57.004-1.515-.923-2.487-2.542-2.487h-1.623zm0 1.076h1.623c.94 0 1.46.629 1.46 1.394 0 .787-.52 1.51-1.46 1.51h-1.623V5.005zM49.43 8.985h1.096V5.289h3.626v3.696h1.101V.509h-1.1v3.684h-3.627V.509H49.43v8.476zM58.351.51v8.475h1.009l3.696-6.216h.068v6.216h1.097V.509h-1.016l-3.7 6.224h-.067V.51H58.35zM67.467.51v2.797c-.003 1.891.98 2.636 2.571 2.636.7 0 1.304-.103 1.826-.277v3.319h1.086V.509h-1.086v4.064a6.437 6.437 0 0 1-1.826.273c-.948 0-1.487-.372-1.487-1.54V.51h-1.084zM79.265 4.213H76.04v1.072h3.225V4.213zM84.722.51H83.7c-.04.231-.593 1.303-1.655 1.303v1.051c.824 0 1.396-.38 1.516-.629h.06v6.75h1.102V.509z" fill="#fff"/></svg>