<svg width="81" height="10" fill="none" xmlns="http://www.w3.org/2000/svg"><path d="M4.38 9.541h1.34L2.719 4.898l3.018-3.832h-1.36l-2.83 3.58h-.376v-3.58H.073v8.475h1.098V5.742h.752l2.458 3.8zM8.331 9.541h1.097v-2.98h1.492c1.687 0 2.521-1.187 2.521-2.751 0-1.56-.827-2.744-2.518-2.744H8.331v8.475zm1.097-4.063V2.163h1.378c1.087 0 1.53.687 1.53 1.647s-.443 1.668-1.516 1.668H9.428zM16.07 9.541l.668-2.243h2.84l.665 2.243h1.165L18.79 1.066h-1.268l-2.617 8.475h1.164zm.988-3.319 1.072-3.616h.057l1.072 3.616h-2.201zM29.657 3.822C29.408 2.01 28.19.95 26.652.95c-1.882 0-3.27 1.643-3.27 4.354 0 2.71 1.381 4.353 3.27 4.353 1.598 0 2.767-1.167 3.005-2.843l-1.108-.004c-.189 1.084-.97 1.68-1.89 1.68-1.246 0-2.187-1.113-2.187-3.186 0-2.057.938-3.187 2.191-3.187.927 0 1.705.609 1.886 1.705h1.108zM32.47 9.541h1.097V5.846h3.626V9.54h1.1V1.066h-1.1V4.75h-3.626V1.066H32.47v8.475zM47.71 5.304c0-2.71-1.393-4.354-3.275-4.354-1.89 0-3.278 1.643-3.278 4.354 0 2.706 1.389 4.353 3.278 4.353 1.882 0 3.274-1.643 3.274-4.353zm-1.088 0c0 2.065-.937 3.186-2.187 3.186-1.254 0-2.188-1.121-2.188-3.186s.934-3.187 2.188-3.187c1.25 0 2.187 1.122 2.187 3.187zM55.428 9.541V1.066h-2.592c-1.687 0-2.518 1.097-2.518 2.657 0 1.138.444 2.003 1.335 2.388l-1.612 3.43h1.25l1.477-3.207h1.563v3.207h1.097zm-1.097-4.308h-1.392c-1.07 0-1.517-.554-1.517-1.51 0-.96.448-1.56 1.53-1.56h1.379v3.07zM58.523 9.541h1.097v-2.98h1.491c1.687 0 2.522-1.187 2.522-2.751 0-1.56-.828-2.744-2.518-2.744h-2.593v8.475zm1.097-4.063V2.163h1.378c1.086 0 1.53.687 1.53 1.647s-.444 1.668-1.516 1.668H59.62zM72.46 3.822C72.21 2.01 70.992.95 69.454.95c-1.882 0-3.27 1.643-3.27 4.354 0 2.71 1.381 4.353 3.27 4.353 1.598 0 2.767-1.167 3.004-2.843l-1.108-.004c-.188 1.084-.969 1.68-1.889 1.68-1.246 0-2.187-1.113-2.187-3.186 0-2.057.937-3.187 2.19-3.187.928 0 1.705.609 1.886 1.705h1.108zM79.58 9.541h1.339l-3-4.643 3.017-3.832h-1.36l-2.83 3.58h-.376v-3.58h-1.098v8.475h1.098V5.742h.753l2.457 3.8z" fill="#fff"/></svg>