<svg width="77" height="10" fill="none" xmlns="http://www.w3.org/2000/svg"><path d="M.802.876v8.475h1.044V3.214h.067L4.058 9.34h.867l2.145-6.12h.067V9.35h1.044V.876H6.849L4.534 7.464h-.085L2.133.876H.802zM12.076 9.351l.668-2.243h2.84l.665 2.243h1.165L14.796.876H13.53l-2.617 8.475h1.164zm.987-3.319 1.073-3.616h.057l1.072 3.616h-2.202zM19.964 9.351h1.097V5.656h3.626V9.35h1.1V.876h-1.1V4.56H21.06V.876h-1.097v8.475zM28.527 1.977h2.266V9.35h1.094V1.977h2.269v-1.1h-5.629v1.1zM37.414 9.467h.497c1.137 0 1.513-.74 1.833-1.585L42.258.876h-1.15l-1.698 4.9-1.907-4.9h-1.165l2.557 6.36-.103.303c-.156.443-.398.803-.94.803h-.438v1.125zM44.796 9.351h1.097v-2.98h1.492c1.687 0 2.521-1.187 2.521-2.751 0-1.56-.827-2.744-2.518-2.744h-2.592v8.475zm1.097-4.063V1.973h1.378c1.087 0 1.53.687 1.53 1.647s-.443 1.668-1.516 1.668h-1.392zM59.01 5.114c0-2.71-1.392-4.354-3.274-4.354-1.89 0-3.278 1.643-3.278 4.354 0 2.706 1.389 4.353 3.278 4.353 1.882 0 3.274-1.643 3.274-4.353zm-1.087 0c0 2.065-.937 3.186-2.187 3.186-1.254 0-2.188-1.121-2.188-3.186s.934-3.187 2.188-3.187c1.25 0 2.187 1.122 2.187 3.187zM61.878 9.351h2.788c1.69 0 2.453-.98 2.453-2.28 0-1.312-.788-2.052-1.509-2.098V4.89c.668-.198 1.225-.728 1.225-1.787 0-1.254-.745-2.227-2.294-2.227h-2.663v8.475zm1.097-1.096V5.54h1.623c.88 0 1.431.662 1.431 1.47 0 .71-.415 1.245-1.47 1.245h-1.584zm0-3.712V1.964h1.499c.87 0 1.285.534 1.285 1.238 0 .82-.575 1.34-1.314 1.34h-1.47zM76.238 5.114c0-2.71-1.392-4.354-3.274-4.354-1.889 0-3.278 1.643-3.278 4.354 0 2.706 1.389 4.353 3.278 4.353 1.882 0 3.274-1.643 3.274-4.353zm-1.086 0c0 2.065-.938 3.186-2.188 3.186-1.253 0-2.187-1.121-2.187-3.186s.934-3.187 2.187-3.187c1.25 0 2.188 1.122 2.188 3.187z" fill="#fff"/></svg>