<svg width="36" height="9" fill="none" xmlns="http://www.w3.org/2000/svg"><path d="M7.456 4.364c0-2.71-1.392-4.353-3.274-4.353C2.292.01.904 1.654.904 4.364c0 2.707 1.389 4.354 3.278 4.354 1.882 0 3.274-1.643 3.274-4.354zm-1.087 0c0 2.065-.937 3.187-2.187 3.187-1.254 0-2.188-1.122-2.188-3.187 0-2.065.934-3.186 2.188-3.186 1.25 0 2.188 1.121 2.188 3.186zM10.324.127v8.475h1.044V2.465h.068l2.145 6.124h.866l2.145-6.12h.067v6.133h1.044V.127h-1.331l-2.316 6.588h-.085L11.656.127h-1.332zM27.025 2.883C26.776 1.07 25.558.01 24.02.01c-1.883 0-3.271 1.643-3.271 4.353s1.381 4.354 3.27 4.354c1.599 0 2.767-1.167 3.005-2.843l-1.108-.004c-.188 1.084-.97 1.68-1.89 1.68-1.246 0-2.187-1.113-2.187-3.187 0-2.056.938-3.186 2.191-3.186.927 0 1.705.608 1.886 1.705h1.108zM34.145 8.602h1.34l-3.002-4.643L35.502.127h-1.36l-2.83 3.58h-.377V.126h-1.097v8.475h1.097v-3.8h.753l2.457 3.8z" fill="#fff"/></svg>