<svg width="42" height="10" fill="none" xmlns="http://www.w3.org/2000/svg"><path d="M6.567.817H.957v8.476H2.05V1.91h3.423v7.383h1.094V.817zM9.745 9.293h4.602V8.192h-3.505V5.597h3.224V4.5h-3.224V1.918h3.462v-1.1h-4.56v8.475zM17.27 9.293h1.098v-2.98h1.49c1.688 0 2.522-1.188 2.522-2.752 0-1.56-.827-2.744-2.517-2.744H17.27v8.476zm1.098-4.064V1.914h1.377c1.087 0 1.53.687 1.53 1.647S20.833 5.23 19.76 5.23h-1.393zM25.167.817v8.476h1.044V3.156h.067l2.145 6.124h.867l2.144-6.12h.068v6.133h1.044V.817h-1.332L28.9 7.406h-.085L26.498.817h-1.331zM36.935 4.236V.817h-1.101v8.476h2.724c1.619 0 2.546-1.051 2.542-2.57.004-1.515-.923-2.487-2.542-2.487h-1.623zm0 1.076h1.623c.94 0 1.46.629 1.46 1.394 0 .786-.52 1.51-1.46 1.51h-1.623V5.313z" fill="#fff"/></svg>