<svg width="41" height="10" fill="none" xmlns="http://www.w3.org/2000/svg"><path d="M5.88.696H.27V9.17h1.094V1.788h3.423v7.383h1.094V.696zM15.1 3.452C14.85 1.639 13.632.58 12.094.58c-1.882 0-3.27 1.643-3.27 4.353s1.38 4.354 3.27 4.354c1.598 0 2.766-1.167 3.004-2.843l-1.108-.004c-.188 1.084-.97 1.68-1.889 1.68-1.246 0-2.187-1.113-2.187-3.187 0-2.056.937-3.186 2.19-3.186.927 0 1.705.608 1.886 1.705H15.1zM22.22 9.171h1.338l-3-4.643L23.576.696h-1.36l-2.83 3.58h-.377V.695h-1.097V9.17h1.098V5.372h.752l2.458 3.799zM32.126 4.933c0-2.71-1.392-4.353-3.274-4.353-1.89 0-3.278 1.643-3.278 4.353 0 2.707 1.389 4.354 3.278 4.354 1.882 0 3.274-1.643 3.274-4.354zm-1.086 0c0 2.065-.938 3.187-2.188 3.187-1.253 0-2.187-1.122-2.187-3.187 0-2.065.934-3.186 2.187-3.186 1.25 0 2.188 1.121 2.188 3.186zM34.994 9.171h2.788c1.69 0 2.454-.98 2.454-2.28 0-1.312-.789-2.053-1.51-2.098V4.71c.668-.199 1.226-.728 1.226-1.788 0-1.254-.746-2.226-2.294-2.226h-2.664V9.17zm1.098-1.097V5.36h1.622c.881 0 1.431.662 1.431 1.469 0 .711-.415 1.245-1.47 1.245h-1.583zm0-3.712V1.784h1.498c.87 0 1.286.534 1.286 1.237 0 .82-.576 1.341-1.314 1.341h-1.47z" fill="#fff"/></svg>