<svg width="38" height="9" fill="none" xmlns="http://www.w3.org/2000/svg"><path d="M.482 1.26h2.266v7.374H3.84V1.259h2.27V.16H.48v1.1zM8.854 8.634h2.788c1.69 0 2.454-.981 2.454-2.28 0-1.312-.789-2.053-1.51-2.099v-.082c.668-.199 1.226-.729 1.226-1.788 0-1.254-.746-2.227-2.294-2.227H8.854v8.476zm1.098-1.097V4.822h1.622c.881 0 1.432.662 1.432 1.47 0 .711-.416 1.245-1.47 1.245H9.951zm0-3.712V1.247h1.498c.87 0 1.286.534 1.286 1.237 0 .82-.576 1.341-1.314 1.341h-1.47zM16.897 8.634H21.5V7.533h-3.506V4.938h3.225V3.842h-3.225V1.259h3.463V.16h-4.56v8.475zM24.423 8.634h1.097v-2.98h1.491c1.687 0 2.522-1.188 2.522-2.752 0-1.56-.828-2.744-2.518-2.744h-2.592v8.476zM25.52 4.57V1.255h1.378c1.086 0 1.53.687 1.53 1.647s-.444 1.668-1.516 1.668H25.52zM33.427 3.577V.158h-1.1v8.476h2.723c1.62 0 2.546-1.051 2.543-2.57.003-1.515-.924-2.487-2.543-2.487h-1.623zm0 1.076h1.623c.941 0 1.46.629 1.46 1.394 0 .787-.519 1.51-1.46 1.51h-1.623V4.654z" fill="#fff"/></svg>