<svg width="53" height="10" fill="none" xmlns="http://www.w3.org/2000/svg"><path d="M.441 1.592h2.266v7.374h1.094V1.592H6.07V.49H.441v1.1zM9.911.49H8.814v8.476H9.91v-3.6h1.275c.199 2.326 1.513 3.716 3.25 3.716 1.881 0 3.273-1.643 3.273-4.354 0-2.71-1.392-4.353-3.274-4.353-1.786 0-3.125 1.47-3.267 3.919H9.911V.491zm6.712 4.239c0 2.065-.938 3.186-2.188 3.186-1.253 0-2.187-1.121-2.187-3.186 0-2.066.934-3.187 2.187-3.187 1.25 0 2.188 1.121 2.188 3.187zM20.392.49v8.476h1.044V2.83h.067l2.145 6.125h.867l2.145-6.12h.067v6.132h1.044V.491H26.44l-2.315 6.588h-.085L21.723.491h-1.331zM31.052 8.966h4.602v-1.1H32.15V5.27h3.225V4.174h-3.225V1.592h3.463V.49h-4.56v8.475zM38.577 8.966h1.098V5.271H43.3v3.695h1.101V.491h-1.1v3.683h-3.626V.491h-1.098v8.475zM48.607 3.91V.49h-1.1v8.476h2.723c1.62 0 2.546-1.051 2.543-2.57.003-1.514-.924-2.487-2.543-2.487h-1.623zm0 1.075h1.623c.941 0 1.46.63 1.46 1.395 0 .786-.519 1.51-1.46 1.51h-1.623V4.985z" fill="#fff"/></svg>