<svg width="64" height="12" fill="none" xmlns="http://www.w3.org/2000/svg"><path d="M1.895 9.082h.497c1.136 0 1.513-.74 1.832-1.585L6.74.491H5.588l-1.697 4.9L1.984.49H.819l2.557 6.36-.103.303c-.157.442-.398.802-.941.802h-.437v1.126zM8.726 8.966h.312c1.655 0 2.053-1.432 2.149-4.155l.114-3.236h2.482v7.391h1.083V.491h-4.599l-.124 3.98c-.078 2.455-.334 3.353-1.204 3.378l-.213.008v1.11zM18.578 8.966l.668-2.243h2.84l.665 2.243h1.165L21.298.491h-1.267l-2.617 8.475h1.164zm.988-3.319 1.072-3.617h.057l1.072 3.617h-2.201zM26.466 8.966h1.097V5.271h3.626v3.695h1.1V.491h-1.1v3.683h-3.626V.491h-1.097v8.475zM38.516 4.195h-3.224v1.071h3.224V4.195zM41.397 9.082h.497c1.136 0 1.513-.74 1.832-1.585L46.24.491h-1.15l-1.698 4.9-1.906-4.9H40.32l2.557 6.36-.103.303c-.157.442-.398.802-.941.802h-.437v1.126zM48.228 11.015h1.051V8.966h4.883v2.036h1.051v-3.12h-.824V.49h-4.485l-.17 3.58c-.11 2.358-.54 3.33-1.027 3.81h-.48v3.134zM50 7.882c.415-.774.696-2.02.785-3.811l.113-2.48h2.44v6.29H50zM57.684 6.276c.139 1.606 1.04 2.806 2.795 2.806 1.754 0 2.876-1.527 2.876-3.902v-.882c0-2.375-1.136-3.923-2.936-3.923-1.712 0-2.596 1.217-2.738 2.855h1.118c.114-1.1.558-1.754 1.62-1.754 1.168 0 1.821 1.1 1.825 2.814h-2.681v1.084h2.677c-.046 1.494-.607 2.624-1.761 2.624-1.09 0-1.555-.604-1.68-1.722h-1.115z" fill="#fff"/></svg>