<svg width="74" height="10" fill="none" xmlns="http://www.w3.org/2000/svg"><path d="M5.651 9.272V.797H3.06C1.372.797.54 1.893.54 3.453c0 1.138.444 2.003 1.335 2.388L.264 9.271h1.25l1.477-3.206h1.563v3.207H5.65zM4.554 4.964H3.162c-1.069 0-1.516-.555-1.516-1.51 0-.96.447-1.56 1.53-1.56h1.378v3.07zM8.746 9.272h1.097v-2.98h1.492c1.686 0 2.52-1.187 2.52-2.752 0-1.56-.827-2.743-2.517-2.743H8.746v8.475zm1.097-4.064V1.893h1.378c1.086 0 1.53.687 1.53 1.647s-.444 1.668-1.516 1.668H9.843zM22.96 5.034c0-2.71-1.392-4.353-3.274-4.353-1.89 0-3.278 1.643-3.278 4.353 0 2.707 1.388 4.354 3.277 4.354 1.883 0 3.275-1.643 3.275-4.354zm-1.087 0c0 2.065-.938 3.187-2.188 3.187-1.253 0-2.187-1.122-2.187-3.187 0-2.065.934-3.186 2.188-3.186 1.25 0 2.187 1.121 2.187 3.186zM31.868 3.553C31.62 1.74 30.402.68 28.864.68c-1.882 0-3.27 1.643-3.27 4.353s1.38 4.354 3.27 4.354c1.598 0 2.766-1.167 3.004-2.843L30.76 6.54c-.188 1.084-.97 1.68-1.889 1.68-1.246 0-2.188-1.114-2.188-3.187 0-2.057.938-3.186 2.192-3.186.926 0 1.704.608 1.885 1.705h1.108zM34.13 9.272h.313c1.655 0 2.053-1.432 2.149-4.155l.113-3.236h2.483v7.39h1.083V.798h-4.599l-.124 3.98c-.078 2.455-.334 3.353-1.204 3.377l-.213.009v1.109zM43.983 9.272l.668-2.243h2.84l.665 2.243h1.164L46.703.797h-1.268l-2.617 8.475h1.165zm.987-3.32 1.073-3.616h.057l1.072 3.617H44.97zM51.87 9.272h2.788c1.69 0 2.454-.981 2.454-2.28 0-1.312-.788-2.053-1.51-2.099v-.082c.669-.199 1.226-.729 1.226-1.788 0-1.254-.746-2.226-2.294-2.226h-2.663v8.475zm1.098-1.097V5.46h1.623c.88 0 1.431.663 1.431 1.47 0 .711-.416 1.245-1.47 1.245h-1.584zm0-3.712V1.885h1.499c.87 0 1.285.534 1.285 1.237 0 .82-.575 1.341-1.314 1.341h-1.47zM59.363 9.272h.313c1.655 0 2.052-1.432 2.148-4.155l.114-3.236h2.482v7.39h1.083V.798h-4.599l-.124 3.98c-.078 2.455-.334 3.353-1.204 3.377l-.213.009v1.109zM69.71 4.215V.797h-1.102v8.475h2.724c1.62 0 2.546-1.051 2.543-2.57.003-1.515-.924-2.487-2.543-2.487h-1.623zm0 1.076h1.622c.941 0 1.46.629 1.46 1.394 0 .787-.519 1.51-1.46 1.51h-1.623V5.292z" fill="#fff"/></svg>